<mxfile host="app.diagrams.net" modified="2022-03-13T17:03:55.613Z" agent="5.0 (Windows NT 10.0; Win64; x64) AppleWebKit/537.36 (KHTML, like Gecko) Chrome/99.0.4844.51 Safari/537.36" etag="2fKMaxmvV05sgl1K2Ino" version="17.1.2" type="github">
  <diagram name="Page-1" id="e7e014a7-5840-1c2e-5031-d8a46d1fe8dd">
    <mxGraphModel dx="723" dy="368" grid="1" gridSize="10" guides="1" tooltips="1" connect="1" arrows="1" fold="1" page="1" pageScale="1" pageWidth="1169" pageHeight="826" background="none" math="0" shadow="0">
      <root>
        <mxCell id="0" />
        <mxCell id="1" parent="0" />
        <mxCell id="v7ldafarao0PPFQP9UDn-43" value="Dicotomia" style="swimlane;fontStyle=0;childLayout=stackLayout;horizontal=1;startSize=26;fillColor=#f5f5f5;horizontalStack=0;resizeParent=1;resizeParentMax=0;resizeLast=0;collapsible=1;marginBottom=0;fontColor=#333333;strokeColor=#666666;" vertex="1" parent="1">
          <mxGeometry x="620" y="350" width="140" height="78" as="geometry" />
        </mxCell>
        <mxCell id="v7ldafarao0PPFQP9UDn-44" value="tabla" style="text;strokeColor=none;fillColor=none;align=left;verticalAlign=top;spacingLeft=4;spacingRight=4;overflow=hidden;rotatable=0;points=[[0,0.5],[1,0.5]];portConstraint=eastwest;" vertex="1" parent="v7ldafarao0PPFQP9UDn-43">
          <mxGeometry y="26" width="140" height="26" as="geometry" />
        </mxCell>
        <mxCell id="v7ldafarao0PPFQP9UDn-45" value="ordenar" style="text;strokeColor=none;fillColor=none;align=left;verticalAlign=top;spacingLeft=4;spacingRight=4;overflow=hidden;rotatable=0;points=[[0,0.5],[1,0.5]];portConstraint=eastwest;" vertex="1" parent="v7ldafarao0PPFQP9UDn-43">
          <mxGeometry y="52" width="140" height="26" as="geometry" />
        </mxCell>
        <mxCell id="v7ldafarao0PPFQP9UDn-47" value="Dicot" style="swimlane;fontStyle=0;childLayout=stackLayout;horizontal=1;startSize=26;fillColor=#ffe6cc;horizontalStack=0;resizeParent=1;resizeParentMax=0;resizeLast=0;collapsible=1;marginBottom=0;strokeColor=#d79b00;" vertex="1" parent="1">
          <mxGeometry x="850" y="350" width="140" height="78" as="geometry" />
        </mxCell>
        <mxCell id="v7ldafarao0PPFQP9UDn-48" value="l" style="text;strokeColor=none;fillColor=none;align=left;verticalAlign=top;spacingLeft=4;spacingRight=4;overflow=hidden;rotatable=0;points=[[0,0.5],[1,0.5]];portConstraint=eastwest;" vertex="1" parent="v7ldafarao0PPFQP9UDn-47">
          <mxGeometry y="26" width="140" height="26" as="geometry" />
        </mxCell>
        <mxCell id="v7ldafarao0PPFQP9UDn-49" value="ordenar_lista" style="text;strokeColor=none;fillColor=none;align=left;verticalAlign=top;spacingLeft=4;spacingRight=4;overflow=hidden;rotatable=0;points=[[0,0.5],[1,0.5]];portConstraint=eastwest;" vertex="1" parent="v7ldafarao0PPFQP9UDn-47">
          <mxGeometry y="52" width="140" height="26" as="geometry" />
        </mxCell>
        <mxCell id="v7ldafarao0PPFQP9UDn-52" value="" style="endArrow=classic;html=1;rounded=0;exitX=-0.01;exitY=0.776;exitDx=0;exitDy=0;exitPerimeter=0;entryX=1.02;entryY=0.808;entryDx=0;entryDy=0;entryPerimeter=0;" edge="1" parent="1" source="v7ldafarao0PPFQP9UDn-48" target="v7ldafarao0PPFQP9UDn-44">
          <mxGeometry width="50" height="50" relative="1" as="geometry">
            <mxPoint x="760" y="470" as="sourcePoint" />
            <mxPoint x="810" y="420" as="targetPoint" />
          </mxGeometry>
        </mxCell>
      </root>
    </mxGraphModel>
  </diagram>
</mxfile>
